<?xml version="1.0" encoding="UTF-8"?>
<!DOCTYPE svg PUBLIC "-//W3C//DTD SVG 1.1//EN" "http://www.w3.org/Graphics/SVG/1.1/DTD/svg11.dtd">
<!-- Creator: CorelDRAW 2020 (64-Bit Evaluation Version) -->
<svg xmlns="http://www.w3.org/2000/svg" xml:space="preserve" width="1200px" height="886px" version="1.1" style="shape-rendering:geometricPrecision; text-rendering:geometricPrecision; image-rendering:optimizeQuality; fill-rule:evenodd; clip-rule:evenodd"
viewBox="0 0 804.46 593.66"
 xmlns:xlink="http://www.w3.org/1999/xlink"
 xmlns:xodm="http://www.corel.com/coreldraw/odm/2003">
 <defs>
  <style type="text/css">
   <![CDATA[
    .fil0 {fill:#0D99DA}
   ]]>
  </style>
 </defs>
 <g id="Layer_x0020_1">
  <metadata id="CorelCorpID_0Corel-Layer"/>
  <path class="fil0" d="M363.14 356.23c9.9,-3.11 22.9,-2.67 25.73,-2.53 492.37,22.88 323.73,-408.94 -158.68,-328.21 693.46,-168.01 771.16,554.59 166.07,419.57 -86.43,-21.38 -58.84,-71.06 -52.11,-77.27 0,0 6.9,-7.77 18.99,-11.56zm141.91 -135.5c-0.01,0 -0.02,-0.01 -0.03,-0.03 -0.1,-0.05 -0.18,-0.09 -0.27,-0.15 -1.43,-0.84 -2.33,-1.36 -2.48,-1.44 -0.02,-0.01 -0.04,0.02 -0.05,0.02 -391.99,-226.97 -498.05,295.96 25.15,333.74 -346.48,-50.42 -376.8,-372.91 -65.13,-274.97l44.2 15.84c13.47,4.37 21.85,5.38 25.2,5.65 13.18,1.02 26.53,-2.32 30.37,-12.9 9.02,-24.76 -44.09,-58.09 -56.96,-65.76zm-406.97 372.93c-3.88,-6.8 -8.72,-13.58 -13.58,-21.35 -14.57,-23.31 -24.28,-45.67 -32.06,-73.81 -11.65,-38.87 -14.57,-85.49 -8.75,-127.26 10.71,-78.66 45.67,-135.96 98.11,-186.45 48.55,-48.58 132.08,-79.67 202.99,-80.63 68.96,-0.98 135,21.36 188.41,61.2 6.79,4.86 14.59,11.64 20.41,15.55 -2.92,-10.69 -30.11,-34.98 -38.85,-42.76 -12.65,-11.64 -31.08,-26.21 -46.65,-34.97 -45.63,-26.21 -94.19,-40.79 -143.71,-42.72l-34.97 0c-49.54,2.91 -98.11,17.48 -140.83,43.7 -90.33,56.32 -144.73,148.62 -148.6,252.54l0 23.29c0.97,18.45 2.9,38.84 7.76,58.28 7.78,38.85 28.18,81.58 50.51,112.66 7.76,9.7 30.12,37.87 39.81,42.73z"/>
 </g>
</svg>
