<?xml version="1.0" encoding="UTF-8"?>
<!DOCTYPE svg PUBLIC "-//W3C//DTD SVG 1.1//EN" "http://www.w3.org/Graphics/SVG/1.1/DTD/svg11.dtd">
<!-- Creator: CorelDRAW 2020 (64-Bit Evaluation Version) -->
<svg xmlns="http://www.w3.org/2000/svg" xml:space="preserve" width="211.667mm" height="145.75mm" version="1.1" style="shape-rendering:geometricPrecision; text-rendering:geometricPrecision; image-rendering:optimizeQuality; fill-rule:evenodd; clip-rule:evenodd"
viewBox="0 0 21193.15 14593.24"
 xmlns:xlink="http://www.w3.org/1999/xlink"
 xmlns:xodm="http://www.corel.com/coreldraw/odm/2003">
 <defs>
  <style type="text/css">
   <![CDATA[
    .str0 {stroke:#13223E;stroke-width:26.49;stroke-linecap:round;stroke-miterlimit:22.9256}
    .fil10 {fill:none}
    .fil4 {fill:#00A0E3}
    .fil12 {fill:#0D99DA}
    .fil7 {fill:#13223E}
    .fil8 {fill:#999999}
    .fil11 {fill:#C4C4C4}
    .fil5 {fill:#C9C9C9}
    .fil3 {fill:white}
    .fil2 {fill:#13223E;fill-rule:nonzero}
    .fil6 {fill:#8E8E8E;fill-rule:nonzero}
    .fil0 {fill:#C4C4C4;fill-rule:nonzero}
    .fil1 {fill:white;fill-rule:nonzero}
    .fil9 {fill:#13223E;fill-opacity:0.301961}
   ]]>
  </style>
 </defs>
 <g id="Layer_x0020_1">
  <metadata id="CorelCorpID_0Corel-Layer"/>
  <ellipse class="fil0" cx="10605.06" cy="13658.19" rx="10169.29" ry="935.05"/>
  <rect class="fil1" x="14172.39" y="2442.19" width="1320.15" height="1504.82"/>
  <path class="fil2" d="M14661.96 3152.8c-2.12,-13.25 -32.06,-25.7 -40.27,-28.88 -39.21,-15.1 -147.03,-50.86 -172.47,-42.39 -25.69,8.75 -11.22,31.27 -17.05,42.39 -6.73,12.69 58.33,18.83 68.82,28.88 0,0 80.22,7.76 143.48,22.78 11.92,2.65 19.6,-1.59 21.73,-12.19 0.53,-3.17 -3.71,-6.62 -4.24,-10.59z"/>
  <path class="fil3" d="M13189.3 312.6l-1208.28 0 0 -312.6 4818.53 0 0 2882.26 0 9280.22 -786.27 0 -410.08 -805.07 103.05 0 0 -211.93 -85.57 0c48.75,-3.44 80.27,-8.48 85.57,-15.63 21.31,-28.59 14.57,-163.9 11.55,-224.6l0 -0.02 -0.16 -3.47c-1.06,-20.14 -20.93,-32.85 -40.27,-26.75 -0.63,0.18 -1.27,0.37 -1.93,0.55 -0.5,0.16 -1,0.3 -1.53,0.43 -1.64,0.42 -3.31,0.82 -5.01,1.14l-21.99 -118.42c53.78,-7.69 94.04,-19.87 93.25,-36.04 -0.53,-7.94 -4.77,-32.32 -12.19,-70.2l45.3 -5.57c7.42,-0.79 12.46,-7.42 11.65,-14.83 -0.79,-7.16 -7.41,-12.46 -14.83,-11.39l-47.69 5.83c-84.77,-413.53 -446.65,-1982.36 -446.65,-1982.36 0,0 157.1,-1095.95 244.79,-1703.66 86.36,-113.38 127.42,-282.93 145.44,-487.71 0,-0.64 0,-1.59 0.02,-2.81 0.03,-1.32 0.11,-2.96 0.24,-4.87 0.79,-26.23 3.44,-108.36 21.73,-186.5 1.95,-8.64 12.53,-15.15 22.99,-21.59 10.73,-6.6 21.36,-13.15 22.57,-21.86 23.05,-157.1 4.17,-341 -16.1,-538.23l0 -0.02c-17.91,-174.27 -36.88,-358.94 -28.93,-544.72 16.95,-392.6 -108.36,-974.62 -383.6,-1207.48 -56.96,-59.34 -96.69,-150.21 -112.06,-257.23 -2.65,-17.48 -17.22,-28.88 -33.11,-29.14 -16.16,-68.09 -24.11,-136.17 -27.28,-203.98 36.43,5.64 51.25,-36.43 68.88,-86.45 12.13,-34.35 25.53,-72.45 48.21,-101.38 43.18,-55.11 236.84,-359.49 100.41,-434.46 157.1,-194.44 -627.32,-352.34 -678.98,-349.95 -126.63,6.09 -216.96,47.42 -230.74,193.38 -1.06,12.19 -1.59,17.48 -5.04,20.4 -2.96,2.31 -7.89,2.99 -16.74,4.25 -9.43,1.32 -23.29,3.28 -43.92,8.47 -64.9,15.63 18.01,308.63 26.76,275.25 -4.25,16.95 -7.69,35.76 -10.07,58.54 -3.17,30.47 -4.77,69.67 -4.77,113.65l0 15.89c0.1,0.13 0.18,0.19 0.18,0.24 0,0.03 0,0.05 0,0.08 -0.02,0.05 -0.1,0.1 -0.18,0.21 -1.85,6.62 -10.07,34.44 -20.4,67.81 -11.92,38.15 -26.23,83.45 -36.83,111.8 -1.32,3.7 -1.85,7.68 -1.85,11.38 0,15.37 10.59,29.15 26.75,32.32l44.77 8.48c2.12,24.9 4.78,49.54 7.69,73.38 6.62,51.92 14.57,99.6 23.84,138.02 9.53,38.68 19.6,67.55 33.38,84.25 5.56,6.09 12.45,7.68 20.66,9.53 8.22,1.32 18.28,2.12 29.94,2.12 36.3,-0.27 89.01,-6.36 142.53,-15.63 1.85,14.04 2.64,27.81 2.64,41.85 0,34.17 -4.5,68.88 -10.59,107.55 -20.67,7.95 -25.43,139.61 -25.43,139.61 -103.32,123.18 -246.64,441.34 -271.27,656.72 -4.25,36.3 -8.48,137.22 -11.13,273.65l-74.43 133.79 -420.16 -526.92c-30.47,-47.95 -64.64,-76.83 -101.73,-89.8 -2.65,-33.91 -9.01,-81.33 -23.32,-115.24 -25.16,-58.8 -213.52,-208.75 -252.2,-213.52 -13.25,-1.59 -25.69,-2.65 -37.36,-2.65l-68.35 -100.4 0 -3493.7 0 -174.31 -174.31 0zm3843.37 3873.34l0 -1303.65 4160.48 0 0 9280.22 -4160.48 0 0 -2157.73 0 -26.49 0 -1421.53 0 -26.49 0 -1421.54 0 -26.48 0 -1421.8 0 -26.49 0 -1421.54 0 -26.48zm-2962.53 7171.44l-409.82 805.08 2115.07 0 -409.82 -805.08 -1295.43 0zm1263.64 -683.69l31.79 -3.97c-86.63,-360.81 -545.72,-1981.82 -545.72,-1981.82 0,0 -16.69,-161.87 -40.53,-397.12l-24.11 113.12 -12.46 550.76c-0.58,49.48 -1.29,98.94 -1.98,148.44l0 0.08 0 0.08 0 0.1 0 0.08 0 0.08 0 0.08 0 0.11 0 0.07 0 0.08 0 0.11 0 0.08c-2.09,148.09 -4.17,296.12 -3.57,444.03 -0.27,99.07 -0.27,197.89 1.06,296.7 0.26,29.67 0.52,59.34 1.05,89.01l237.37 0 0 152.33 -20.67 0 378.3 743.35 61.73 35.76c34.43,-7.16 58.8,-9.54 68.61,-6.36 3.97,1.32 8.21,2.64 12.72,3.96 -9.8,-32.58 -18.27,-68.08 -25.16,-98.81 -42.39,-4.24 -72.32,-12.72 -72.85,-26.48 -0.27,-5.57 -2.91,-20.14 -7.69,-41.86l-34.7 4.25c-7.15,0.79 -13.77,-4.25 -14.83,-11.39 -0.8,-7.42 4.5,-14.04 11.65,-14.84zm-278.69 207.43l90.33 52.46c-201.86,63.31 -423.6,147.02 -423.6,170.86 0,18.28 180.15,33.38 386.51,41.06l-633.15 0c119.22,-4.77 206.9,-12.98 215.64,-24.63 20.41,-27.28 18.81,-158.95 16.16,-214.05 -1.05,-18.81 -28.88,-54.58 -46.89,-49.01 -6.62,2.11 -13.51,3.97 -20.66,5.83l0 -101.2c56.42,-8.48 99.07,-23.58 98.01,-43.71 -0.79,-14.31 -1.32,-29.41 -1.59,-45.04l81.86 -3.97c7.15,-0.26 12.72,-6.36 12.46,-13.78 -0.27,-7.41 -6.63,-12.98 -13.78,-12.72l-81.07 3.97c-1.11,-79.34 1.43,-171.07 3.89,-260.49 2.23,-81.04 4.43,-160.17 3.79,-226.42l12.98 0 364 714.74 -45.83 -26.49c-9.01,-5.3 -20.67,-2.12 -25.7,6.89 -5.3,9 -2.11,20.4 6.63,25.69zm-672.62 -136.99l-79.74 156.57c85.57,-24.9 151,-39.47 167.69,-33.9l1.01 0.29c1.45,0.42 2.77,0.82 4.29,1.03l0 -99.34c-44.51,-3.17 -80.79,-11.12 -93.25,-24.64zm-652.75 401.3l0 211.92 102.78 0 -410.08 805.08 -58.81 0 0 -6935.73 -138.02 -91.39c-14.04,-11.38 -26.22,-22.25 -36.29,-33.11 -45.57,-47.68 -51.92,-89.8 -32.59,-138.02 7.42,-18.27 18.28,-37.35 32.59,-57.75 13.77,-20.4 30.46,-42.12 49.53,-65.96l0.27 -0.26c22.25,-27.81 44.77,-51.66 67.28,-70.74 15.63,-12.98 31.26,-23.84 47.16,-32.32l1.8 -0.97 0.02 0c2.76,-1.51 5.41,-2.94 8.24,-4.06 3.44,-1.59 6.89,-3.18 10.07,-4.51 15.63,-6.36 31.26,-10.06 47.15,-11.39l0.27 0c35.23,-2.91 71.79,6.1 110.47,29.68 11.91,6.88 23.84,15.36 36.03,25.16l703.35 455.13 67.55 -147.03 391.81 -851.97c40.79,-82.12 125.57,-135.37 217.76,-153.12 69.94,-13.78 144.11,-6.62 206.37,24.11 144.37,71.53 264.91,272.33 193.65,416.44 0,0 -683.74,1242.98 -940.45,1312.39 -20.67,0 -40.54,-1.85 -59.61,-5.04 12.72,309.69 39.21,556.33 87.96,554.47 -21.73,66.75 -7.16,163.18 -7.16,163.18l8.21 0c-18.27,37.09 -29.14,77.36 -32.05,118.95l-29.67 398.17 -0.27 1.85c-94.31,599.77 -202.65,1256.22 -202.65,1256.22l14.57 109.42 89.8 549.7c4.75,49.67 9.59,99.31 14.41,148.93 14.39,147.37 28.75,294.67 40.43,442.09 8.74,98.55 16.95,197.1 23.58,295.65 7.42,98.54 14.57,197.36 20.14,295.91 2.38,38.15 3.44,81.32 3.7,127.16l-313.39 615.39 -37.62 -23.57c-8.74,-5.57 -20.41,-2.92 -25.96,6.09 -5.57,8.74 -2.91,20.4 6.09,25.96l40.53 25.43 -31.26 61.2c-151.26,54.57 -281.86,109.41 -281.86,126.63 0,11.65 81.59,19.86 197.1,24.64l-202.92 0zm-8806.37 -8280.94l17.56 0 3004.66 0 0 9297.97 -2168.32 0 0 0.05 -1118.74 0 0 -0.05 0 -0.03 -216.43 0 0 0.08 -579.63 0 0 -0.08 -2225.28 0 0 0.08 -185.44 0 0 -0.08 -1451.72 0 0 -11979.69 4940.92 0 0 2406.21c-6.02,92.8 -11.86,184.64 -17.56,275.53z"/>
  <path class="fil4" d="M1088.98 5426.9c0,59.28 -48.06,107.37 -107.37,107.37 -59.31,0 -107.39,-48.09 -107.39,-107.37 0,-59.31 48.08,-107.39 107.39,-107.39 59.31,0 107.37,48.08 107.37,107.39z"/>
  <path class="fil4" d="M18353.43 2295.48c59.28,0 107.36,-48.05 107.36,-107.36 0,-59.31 -48.08,-107.39 -107.36,-107.39 -59.31,0 -107.39,48.08 -107.39,107.39 0,59.31 48.08,107.36 107.39,107.36z"/>
  <path class="fil4" d="M16513.54 8555.14c0,59.31 -48.08,107.39 -107.39,107.39 -59.31,0 -107.39,-48.08 -107.39,-107.39 0,-59.28 48.08,-107.36 107.39,-107.36 59.31,0 107.39,48.08 107.39,107.36z"/>
  <polygon class="fil4" points="1283.5,10189.88 1002.43,10189.88 1038.99,10638.91 1329.86,10638.91 1366.43,10189.88 1337.02,10189.88 "/>
  <path class="fil4" d="M1763.53 12312.72c-38.42,0 -72.85,-17.22 -95.9,-44.25 -12.99,-14.83 -26.76,-52.98 -26.76,-52.98 0,0 -3.7,-383.28 -3.7,-554.2 0,-69.68 56.43,-126.37 126.37,-126.37l80.79 0 0 -444.53 320.02 0 0 444.53 1101.78 0 0 -444.53 320.02 0 0 444.53 149.68 0c69.94,0 126.63,56.69 126.63,126.37 0,35.2 1.48,81.59 3.15,133.25 5.25,163.13 12.19,378.88 -20.8,461.3 -15.34,38.36 -70.58,56.88 -108.99,56.88l-240.81 0 -138.01 0 -1283.78 0 -138.01 0 -171.66 0z"/>
  <polygon class="fil4" points="2164.35,9186.96 3266.12,9186.96 3266.12,9389.63 2164.35,9389.63 "/>
  <polygon class="fil4" points="2164.35,9808.99 3266.12,9808.99 3266.12,10638.97 3586.14,10638.97 3586.14,8468.26 3266.12,8468.26 3266.12,8767.61 2164.35,8767.61 2164.35,8468.26 1844.33,8468.26 1844.33,10638.97 2164.35,10638.97 "/>
  <polygon class="fil4" points="4586.99,10638.7 4586.99,10462.8 4442.08,10462.8 4417.71,10462.8 4417.71,10286.89 4442.08,10286.89 4658.51,10286.89 4783.03,10286.89 4783.03,10111.26 6257.54,10111.26 6257.54,10286.89 5892.23,10286.89 5892.23,10462.8 6061.51,10462.8 6061.51,10638.7 4658.51,10638.7 "/>
  <path class="fil4" d="M14048.67 10933.05l-40.53 -25.43c-9,-5.57 -11.65,-17.22 -6.09,-25.96 5.56,-9.01 17.22,-11.65 25.96,-6.1l37.62 23.58 -16.96 33.91z"/>
  <path class="fil4" d="M14260.35 11043.22c5.3,-8.74 2.64,-20.4 -6.1,-25.96l-8.21 -5.3 -17.22 33.91 5.57 3.43c8.74,5.57 20.4,2.65 25.96,-6.09z"/>
  <path class="fil4" d="M14419.02 10985.47c8.74,5.57 11.39,17.22 5.83,25.96 -5.3,9.01 -16.95,11.65 -25.96,6.09l-118.15 -73.9 17.48 -33.91 120.8 75.76z"/>
  <path class="fil4" d="M14475.72 10868.17l0 -99.34c50.86,3.97 112.86,1.59 163.72,-6.36l0 101.2c-56.96,14.58 -119.75,17.75 -163.72,4.51z"/>
  <path class="fil4" d="M15055.09 10881.12l90.33 52.46 6.1 3.44 -2.39 -4.51 -29.14 -57.48 -45.83 -26.49c-9.01,-5.3 -20.67,-2.12 -25.7,6.89 -5.3,9 -2.11,20.4 6.63,25.69z"/>
  <path class="fil4" d="M15396.04 10865.17l-61.73 -35.76 22.78 44.25 9.01 17.75 102.26 59.33c9,5.3 20.66,2.12 25.69,-6.89 5.3,-9 2.38,-20.4 -6.62,-25.69l-91.39 -52.99z"/>
  <path class="fil4" d="M15646.91 10758.73l21.99 118.42c-62,16.43 -140.15,1.32 -191.54,-14.31 -9.8,-32.58 -18.27,-68.08 -25.16,-98.81 56.16,5.57 134.05,3.18 194.71,-5.3z"/>
  <path class="fil4" d="M15371.66 10695.68l-34.7 4.25c-7.15,0.79 -13.77,-4.25 -14.83,-11.39 -0.8,-7.42 4.5,-14.04 11.65,-14.84l31.79 -3.97 356.84 -43.17 47.69 -5.83c7.42,-1.06 14.04,4.24 14.83,11.38 0.8,7.42 -4.24,14.05 -11.65,14.84l-45.3 5.57 -98.28 11.91 -192.86 23.31 -65.17 7.95z"/>
  <path class="fil4" d="M14430.68 3181.62c3.18,-10.56 8.22,-20.11 14.58,-27.54 7.41,-8.98 16.16,-15.37 25.96,-19.05 5.3,-1.85 11.12,-2.93 16.95,-2.93 1.06,0 2.12,0 3.17,0.26 12.72,0.53 24.64,6.36 34.17,15.92l0.27 0 0 0c0.5,0.51 1.03,1.03 1.53,1.54 0.43,0.42 0.82,0.87 1.25,1.29 0.87,0.96 1.72,1.94 2.51,2.97 0.11,0.18 0.21,0.34 0.34,0.5 0.19,0.24 0.38,0.48 0.59,0.71l0.02 0.03c0.32,0.37 0.64,0.77 0.9,1.17 10.6,13.51 17.22,32.55 17.22,53.75 0,22.28 -7.42,42.41 -19.07,56.43 -11.39,14.06 -26.49,22.01 -42.91,22.01 -12.46,0 -24.37,-4.77 -34.7,-13.54 -0.43,-0.42 -0.9,-0.84 -1.38,-1.27l-0.37 -0.32c-0.58,-0.52 -1.16,-1.05 -1.69,-1.58 -1.59,-1.56 -3.18,-3.44 -4.77,-5.3 -8.75,-10.33 -14.84,-24.09 -17.75,-39.74 -0.79,-5.3 -1.32,-10.83 -1.32,-16.69 0,-10.07 1.58,-19.86 4.5,-28.62z"/>
  <path class="fil4" d="M14424.85 3283.34c7.16,8.77 15.9,16.16 25.7,21.73 11.38,6.36 24.1,10.09 37.62,10.09 25.43,0 47.95,-12.72 63.58,-31.82 12.98,-15.63 21.46,-35.73 23.84,-58.27l283.46 -34.15 74.7 -9.03 26.22 -3.18c4.51,-9.24 10.86,-17.19 18.28,-24.08 0.53,-0.47 1.06,-0.95 1.61,-1.4 0.56,-0.45 1.09,-0.9 1.62,-1.32l0.07 -0.08c0.59,-0.48 1.14,-0.95 1.72,-1.4l0.59 -0.51c0.34,-0.29 0.66,-0.58 1,-0.87l-32.58 4.01 -95.9 11.38 -280.54 33.88c-1.33,-14.83 -5.31,-28.85 -11.39,-41.32 -3.44,-7.13 -7.95,-14.02 -12.72,-19.87 -15.63,-19.04 -38.15,-31.52 -63.58,-31.52 -16.16,0 -31.26,5.04 -43.97,14.04 -7.16,4.51 -13.78,10.62 -19.34,17.48 -1.58,1.86 -2.91,3.71 -3.97,5.57 -6.36,8.5 -11.12,17.75 -14.83,28.09 -3.97,12.21 -6.36,25.72 -6.36,39.47 0,16.69 3.17,32.34 9.27,46.36 3.97,9.8 9.27,18.83 15.89,26.75z"/>
  <path class="fil4" d="M13134.19 12728.58l-31.55 62.07c3207.9,100.07 6873.29,368.29 6866.61,845.3 -8.03,574.47 -4163.93,739.63 -9300.09,739.63 -6798.67,0 -9654.02,-500.72 -9357.45,-766.53 533.78,-478.44 3650.68,-746.82 6808.17,-832.94l0 -45.68 0 -462.01 0 -52.99 0 -52.98 0 -9297.97 0 -2377.61 5069.41 0 0 3237.79 -500.72 0 500.72 709.63 0 7728.17 0 52.98 0 52.99 0 64.11 -72.06 0 0 211.93 72.06 0 0 76.03 -55.11 108.09z"/>
  <path class="fil5" d="M16468.94 13057.66l-100.14 -196.84 -161.07 -316.31 111 0 0 -211.93 -218.82 0 -32.58 -64.13 -27.02 -52.99 -27.02 -52.99 -410.08 -805.05 103.05 0 0 -211.93 -85.57 0 -125.31 0 -129.27 -254.08 -9.01 -17.72 -22.78 -44.27 -378.3 -743.35 -214.32 0 -262 0 -100.67 197.63 -313.39 615.4 -16.96 33.93 -31.26 61.17 -77.09 151.29 -7.68 0 -202.92 0 0 211.93 102.78 0 -410.08 805.05 -27.02 52.99 -27.02 52.99 -4.77 9.56 -27.81 54.57 -146.49 0 -72.06 0 0 211.93 72.06 0 38.68 0 -38.68 76.03 -55.11 108.07 -97.48 191.82 -41.33 81.07 -34.43 67.54 -54.58 106.74 -16.95 33.93 -164.52 322.93 237.63 0 169.02 -331.96 12.72 -24.9 49.8 -97.49 77.62 -152.83 91.92 -180.44 5.57 -10.86 96.69 -189.65 2503.97 0 153.65 301.48 100.14 196.57 249.55 490.09 237.63 0 -241.86 -474.99zm-468.38 -614.08c0,-23.31 19.07,-42.14 42.39,-42.14 23.31,0 42.12,18.83 42.12,42.14 0,23.29 -18.81,42.36 -42.12,42.36 -23.32,0 -42.39,-19.07 -42.39,-42.36zm-1771.74 -1397.69l17.22 -33.93 34.7 -68.35 17.48 -33.91 4.51 -9.01 79.74 -156.57 27.55 -54.01 13.77 -27.31 255.91 -502.52 63.32 0 12.98 0 364 714.71 29.14 57.48 2.39 4.51 106.22 208.51 -149.41 0 -633.15 0 -297.23 0 50.86 -99.6zm-793.68 1397.69c0,23.29 -18.81,42.36 -42.12,42.36 -11.65,0 -21.99,-4.48 -29.41,-11.92 -7.95,-7.65 -12.98,-18.54 -12.98,-30.44 0,-11.91 5.03,-22.54 12.98,-30.2 7.42,-7.44 17.75,-11.94 29.41,-11.94 23.31,0 42.12,18.83 42.12,42.14zm138.55 -111l32.58 -64.13 27.02 -52.99 27.02 -52.99 409.82 -805.05 1295.43 0 409.82 805.05 27.02 52.99 27.01 52.99 32.59 64.13 -2288.33 0zm2978.96 1356.34l8.21 -4.24 -10.33 0 2.12 4.24zm-3667.48 -4.24l-2.11 4.24 -8.21 -4.24 10.32 0z"/>
  <path class="fil6" d="M13416.3 4708.09l362.93 -117.1 -47.69 90.34 -200.01 64.64c-38.68,-23.58 -75.23,-32.59 -110.47,-29.68 0,0 0,0 -0.26,0 -1.59,-2.91 -3.18,-5.56 -4.51,-8.21z"/>
  <path class="fil6" d="M13420.83 4716.25c-15.89,1.32 -31.52,5.04 -47.15,11.39l4.77 -7.42 37.88 -12.19c1.33,2.64 2.91,5.3 4.51,8.21z"/>
  <path class="fil7" d="M12995.38 13001.5l-34.43 67.54 -54.58 106.76 -4786.47 0 -174.32 0 0 -95.1 0 -812.24 -1938.11 0 0 1416.24 -230.21 0 0 -1416.24 -1945.27 0c12.72,-14.83 22.26,-33.11 26.76,-52.98 2.38,-9.54 3.7,-19.34 3.7,-29.41l0 -23.58 579.63 0 0 -1072.11 -2990.36 0 0 1072.11 185.44 0 0 23.58c0,10.06 1.06,19.86 3.7,29.41 4.51,19.86 13.78,38.15 26.76,52.98l-215.91 0 0 968.27 0 300.41 0 12.46 0 135.11 -62.25 0 -0.27 0 -167.43 0 0 -115.24 0 -284.78 0 -1016.22 -1221.78 0 0 -52.98 0 -52.99 1221.78 0 0 -1072.11 -361.6 0 0 -451.41 3581.91 0 0 -176.17 144.91 0 0 175.91 71.52 0 0 0.26 1710.56 0 0 451.41 -361.61 0 0 1072.11 1938.11 0 0 -9297.97 0 -2377.61 0 -174.31 174.32 0 3861.13 0 1208.28 0 174.31 0 0 174.31 0 3493.7 -174.31 -255.9 0 -3237.8 -1208.28 0 -3861.13 0 0 2377.61 0 9403.94 0 655.67 0 77.36 4875.48 0zm-8336.86 -838.99l1118.74 0 0 -1072.11 -1118.74 0 0 1072.11zm9679.98 -7083.36l391.81 -851.93c40.79,-82.12 125.57,-135.37 217.76,-153.15 69.94,-13.75 144.11,-6.62 206.37,24.14 144.37,71.52 264.91,272.3 193.65,416.41 0,0 -683.74,1243.01 -940.45,1312.42 -20.67,0 -40.54,-1.86 -59.61,-5.04 12.72,309.69 39.21,556.32 87.96,554.46 -21.73,66.76 -7.16,163.16 -7.16,163.16l8.21 0c3.66,0 105.49,196.09 107.55,230.56 28.59,479.55 1125.42,-305.87 1125.42,-305.87 0,0 4.93,-149.97 17.96,-205.74 1.95,-8.66 12.53,-15.15 23.02,-21.62 10.7,-6.6 21.33,-13.14 22.54,-21.86 23.08,-157.09 4.17,-340.97 -16.1,-538.19l0 -0.03c-17.91,-174.29 -36.88,-358.96 -28.93,-544.74 16.95,-392.58 -108.36,-974.6 -383.6,-1207.46 -56.96,-59.33 -96.69,-150.23 -112.06,-257.23 -2.65,-17.48 -17.22,-28.9 -33.11,-29.14 -16.16,-68.09 -24.11,-136.17 -27.28,-203.98 36.43,5.65 51.25,-36.46 68.9,-86.47 12.11,-34.36 25.54,-72.45 48.19,-101.39 43.18,-55.07 236.84,-359.49 100.41,-434.43 157.1,-194.44 -627.32,-352.36 -678.98,-349.95 -126.63,6.07 -216.96,47.39 -230.74,193.36 -1.06,12.22 -1.59,17.51 -5.04,20.43 -2.94,2.3 -7.89,2.99 -16.74,4.24 -9.43,1.32 -23.29,3.26 -43.92,8.45 -64.9,15.66 18.01,308.66 26.76,275.27 -4.25,16.95 -7.69,35.73 -10.07,58.54 -3.17,30.44 -4.77,69.68 -4.77,113.65l0 15.87c0.13,0.13 0.21,0.21 0.21,0.26 0,0.08 -0.08,0.13 -0.21,0.29 -1.85,6.63 -10.07,34.41 -20.4,67.82 -11.92,38.15 -26.23,83.44 -36.83,111.79 -1.32,3.68 -1.85,7.68 -1.85,11.39 0,15.34 10.59,29.14 26.75,32.29l44.77 8.5c2.12,24.9 4.78,49.51 7.69,73.38 6.62,51.9 14.57,99.61 23.84,137.99 9.53,38.71 19.6,67.58 33.38,84.28 5.56,6.09 12.45,7.68 20.66,9.53 8.22,1.33 18.28,2.09 29.94,2.09 36.3,-0.23 89.01,-6.36 142.53,-15.6 1.85,14.02 2.64,27.81 2.64,41.85 0,34.18 -4.5,68.89 -10.59,107.56 -20.67,7.94 -25.43,139.57 -25.43,139.57 -103.32,123.21 -246.64,441.38 -271.27,656.75 -4.25,36.3 -8.48,137.23 -11.13,273.63l-74.43 133.81 -420.16 -526.91c-30.47,-47.95 -64.64,-76.86 -101.73,-89.81 -2.65,-33.9 -9.01,-81.35 -23.32,-115.23 -25.16,-58.84 -213.52,-208.75 -252.2,-213.53 -13.25,-1.58 -25.69,-2.67 -37.36,-2.67l85.31 125.34c-62.52,16.16 -140.14,43.97 -128.75,78.94 14.31,44.22 180.94,90.86 257.23,109.68l9.27 13.51 50.07 73.65 74.17 108.85 -47.68 90.36 -200.01 64.64c11.91,6.89 23.84,15.34 36.03,25.14l703.35 455.15 67.55 -147.05zm132.49 -1421.08c-14.05,-57.49 -46.92,-204.71 -54.34,-288.94l-59.07 -12.43c-6.63,-1.09 -10.86,-6.89 -10.86,-13.25l0.79 -4.77c55.27,-120.28 59.34,-176.41 65.57,-261.74 2.59,-35.76 5.57,-76.67 12.85,-129.54 13.86,0.63 30.39,8.18 41.75,13.4 2.51,1.14 4.8,2.2 6.73,3.02 71.9,29.57 134.5,20.11 206.11,9.32 29.72,-4.48 60.98,-9.19 95.1,-11.46 18.54,-1.3 60.67,-1.59 83.97,12.74 2.07,1.25 0.9,23.34 -0.71,53.94l0 0.03 0 0.05 0 0.03 0 0.02 0 0 0 0.03c-2.12,40 -5.01,94.45 -2.46,135.85l95.9 -11.39c2.59,-4.13 5.19,-7.89 7.65,-11.44l1.62 -2.33c30.2,-43.46 94.58,-51.68 130.6,-12.72 13.78,15.11 22.52,35.21 22.25,58.52 -0.87,48.98 -21.75,90.39 -36.03,118.74l-0.03 0.02 0 0.03c-7.57,15.05 -13.3,26.41 -13.22,33.3 0,5.83 3.44,15.34 9.01,26.22 6.89,14.02 17.21,30.18 27.81,43.68 3.44,4.77 7.15,9.03 10.59,12.75 2.38,73.62 10.59,148.35 28.62,223.32l-471.55 174.56c3.97,-25.67 6.89,-49.81 8.21,-73.89 50.52,-5.32 86.87,-22.25 127.74,-41.3 18.3,-8.52 37.52,-17.48 59.29,-25.98 16.16,-6.39 29.93,-16.69 35.75,-31.29 1.86,-5.01 2.65,-10.04 2.65,-15.87 -1.06,-81.35 2.91,-113.91 10.59,-146.49l0 -0.53c5.57,-24.13 2.65,-36.3 1.33,-39.74 0,-0.82 -0.27,-1.06 -0.27,-1.06l-0.26 0.24c-0.8,-3.44 -3.18,-6.07 -6.63,-6.86 -5.3,-1.09 -10.59,1.82 -11.91,7.13l-16.43 65.72 -11.38 46.36 -11.92 47.69c-3.7,2.64 -164.76,43.41 -164.76,43.41 0,0 -171.39,34.73 -220.67,12.91zm2561.69 8504.44l0 -9280.22 -233.12 0 0 9280.22 -786.27 0 27.02 52.99 27.02 52.98 732.23 0 4393.6 0 0 -52.98 0 -52.99 -4160.48 0zm-559.5 1370.06l-150.21 0 0 64.63 0 87.43 227.56 0 10.33 0 279.48 0 0 -73.65 0 -78.41 -129.54 0 -237.63 0zm-472.61 -1089.04c0,-23.31 19.07,-42.12 42.39,-42.12 23.31,0 42.12,18.81 42.12,42.12 0,23.31 -18.81,42.38 -42.12,42.38 -23.32,0 -42.39,-19.07 -42.39,-42.38zm-2567.6 -56.13c-23.31,0 -42.38,18.8 -42.38,42.11 0,23.32 19.07,42.39 42.38,42.39 23.31,0 42.12,-19.07 42.12,-42.39 0,-23.31 -18.81,-42.11 -42.12,-42.11zm227.35 -224.94l2115.07 0 27.02 52.98 27.01 52.99 -2223.16 0 27.02 -52.99 27.02 -52.98zm2079.84 -1439.81c-0.53,-7.95 -4.77,-32.32 -12.19,-70.21l-98.28 11.92 -192.86 23.31 -65.17 7.95c4.78,21.73 7.42,36.3 7.69,41.85 0.53,13.78 30.46,22.26 72.85,26.49 56.16,5.57 134.05,3.18 194.71,-5.3 53.78,-7.68 94.04,-19.86 93.25,-36.03zm-464.4 -2078.55c0,0 361.88,1568.82 446.65,1982.36l-356.84 43.17c-86.63,-360.81 -545.72,-1981.82 -545.72,-1981.82 0,0 -16.69,-161.86 -40.53,-397.11l87.95 -415.13c0,0 216.43,-402.66 415.91,-789.45 103.32,-19.59 180.41,-70.2 237.37,-145.7 -87.69,607.72 -244.79,1703.67 -244.79,1703.67zm192.6 2306.66l-102.26 -59.34 129.27 254.06 125.31 0c48.75,-3.44 80.27,-8.48 85.57,-15.63 21.31,-28.59 14.6,-163.9 11.57,-224.6l0 -0.02 -0.18 -3.47c-1.06,-20.14 -20.93,-32.85 -40.27,-26.75 -2.64,0.79 -5.56,1.59 -8.47,2.12 -62,16.42 -140.15,1.32 -191.54,-14.31 -3.97,-1.17 -7.76,-2.36 -11.33,-3.52l-1.38 -0.45c-9.8,-3.18 -34.17,-0.79 -68.61,6.36l91.39 52.99c9,5.3 11.91,16.68 6.62,25.69 -5.04,9.01 -16.69,12.19 -25.69,6.89zm-210.61 194.68l-149.41 0c-206.37,-7.68 -386.51,-22.78 -386.51,-41.06 0,-23.84 221.74,-107.55 423.6,-170.86l6.1 3.43 106.22 208.49zm-251.03 -7979.14c-14.36,11.12 -27.86,27.39 -35.83,39.05 -4.14,6.04 -12.41,7.6 -18.41,3.47 -6.05,-4.14 -7.58,-12.41 -3.44,-18.41 8.92,-13.07 24.24,-31.69 41.45,-45.04 8.59,-6.68 18.39,-12.62 28.7,-15.45 10.59,-2.93 22.36,-2.72 33.17,3.92 23.23,14.31 29.85,40.27 29.85,65.43 0,25.41 -6.65,53.78 -14.09,78.5 -15.21,50.49 -44.64,88.72 -88.22,92.83 -10.83,1.03 -20.08,-2.41 -27.15,-8.8 -6.65,-6.01 -10.78,-14.04 -13.43,-21.7 -5.25,-15.23 -5.99,-33.19 -5.28,-44.93 0.45,-7.31 6.73,-12.88 14.05,-12.43 7.31,0.48 12.85,6.76 12.4,14.04 -0.61,9.86 0.18,23.95 3.89,34.71 1.82,5.32 4.03,8.76 6.12,10.64 1.67,1.51 3.6,2.38 6.91,2.09 27.18,-2.56 51.18,-27.1 65.36,-74.12 7.23,-24 12.96,-49.38 12.96,-70.84 0,-21.75 -5.76,-35.78 -17.25,-42.86 -3.04,-1.88 -6.84,-2.46 -12.22,-0.98 -5.67,1.59 -12.35,5.3 -19.52,10.86zm-30.04 6919.78l-20.67 0 -214.32 0 -262 0 -20.67 0 0 -152.33 280.28 0 237.37 0 0 152.33zm-59.6 -6871.64c4.24,-10.07 10.06,-21.2 16.69,-32.59l-74.7 9.01c1.58,9.53 3.7,17.75 6.62,23.58 6.36,13.25 43.71,18.54 51.39,0zm-86.89 7441.42c0.26,7.41 -5.31,13.51 -12.46,13.77l-81.86 3.97 -104.11 5.3 -156.04 7.69 -65.69 3.44 13.77 -27.29 311.54 -15.63 81.07 -3.96c7.15,-0.27 13.51,5.3 13.78,12.72zm-277.9 -7182.05c-5.04,-1.59 -10.33,1.32 -11.92,6.62 -1.59,6.36 -8.21,14.05 -17.75,19.6 -9.53,5.83 -21.46,9.54 -33.11,9.54 -8.21,0 -16.16,-1.85 -22.78,-5.83 -4.8,-2.65 -10.6,-1.06 -13.25,3.44 -2.65,4.77 -1.09,10.59 3.41,13.25 10.33,6.09 21.49,8.47 32.61,8.47 15.61,0 30.71,-4.77 43.18,-12.19 12.16,-7.68 22.52,-18.01 26.22,-30.99 1.59,-5.31 -1.59,-10.6 -6.62,-11.92zm-323.46 7572.11l5.57 3.44c8.74,5.56 20.4,2.64 25.96,-6.1 5.3,-8.74 2.64,-20.4 -6.1,-25.96l-8.21 -5.3 34.7 -68.35 118.15 73.91c9.01,5.56 20.67,2.91 25.96,-6.1 5.57,-8.74 2.91,-20.4 -5.83,-25.96l-120.8 -75.76 4.51 -9c85.57,-24.9 151,-39.48 167.69,-33.91 1.3,0.37 2.46,0.74 3.68,1.01 0.53,0.13 1.06,0.23 1.61,0.31 43.97,13.25 106.76,10.07 163.72,-4.51 7.15,-1.85 14.04,-3.7 20.66,-5.83 18.01,-5.56 45.84,30.21 46.89,49.01 2.65,55.11 4.25,186.76 -16.16,214.06 -8.74,11.65 -96.42,19.86 -215.64,24.63l-297.23 0 50.86 -99.6zm-288.49 99.6l-7.68 0c-115.5,-4.77 -197.1,-12.98 -197.1,-24.63 0,-17.22 130.6,-72.06 281.86,-126.64l-77.09 151.27zm-532.75 -6681.48c-19.6,-21.99 -28.08,-23.32 -43.97,-8.48 -2.22,2.04 -4.69,4.56 -7.44,7.36 -1.48,1.54 -3.07,3.13 -4.75,4.83 -1.4,1.48 -2.83,3.04 -4.35,4.69l-0.02 0.03 -0.03 0c-14.07,15.21 -33.8,36.51 -63.69,62.57 -6.09,5.31 -12.72,10.86 -19.6,16.43l-0.26 0.26c-0.16,0.13 -0.21,0.21 -0.29,0.24 -0.05,0 -0.08,0.03 -0.16,0.03l-0.08 0c-21.2,17.22 -46.63,28.88 -73.64,36.82 -7.95,2.39 -16.16,4.51 -24.64,6.1 -62.26,12.72 -125.31,4.24 -181.2,-20.67 -55.11,-23.84 -103.59,-63.84 -138.82,-114.97l-9.53 -13.78c0,0 -20.67,115.77 -25.96,224.92 -2.65,49.8 57.22,162.65 151.27,221.47 65.16,40.79 143.05,61.99 196.3,72.32 7.42,-18.28 18.28,-37.36 32.59,-57.75 13.77,-20.4 30.46,-42.12 49.53,-65.96l0.27 -0.27c22.25,-27.81 44.77,-51.65 67.28,-70.73 15.63,-12.98 31.26,-23.84 47.16,-32.32l1.8 -0.98c0.76,-0.42 1.53,-0.84 2.3,-1.27 0.79,-0.39 1.56,-0.82 2.35,-1.19 1.19,-0.58 2.39,-1.14 3.6,-1.59 1.17,-0.55 2.33,-1.08 3.49,-1.61 2.25,-1.03 4.49,-2.01 6.58,-2.88l4.77 -7.42 0.26 -0.27 0 -0.26 0 -0.16 0 -0.13c0.03,-0.08 0.03,-0.16 0.08,-0.24 0,-0.05 0.03,-0.08 0.06,-0.13 0.05,-0.06 0.08,-0.11 0.13,-0.14 1.85,-5.83 8.74,-27.54 16.42,-56.42l0 -0.27c3.71,-13.25 7.42,-28.08 10.86,-43.7 4.77,-21.99 9.27,-45.31 11.65,-67.29 2.91,-24.37 3.44,-47.15 -0.26,-64.37 -1.85,-9.54 -5.04,-17.22 -10.07,-22.78zm-263.32 8711.79l49.8 -97.49 77.62 -152.85 91.92 -180.41 0 182.79 0 73.64 0 85.04 0 89.28 -174.31 0 -45.04 0zm219.34 -897.79l0 -9.54 4.77 0 27.02 -52.99 27.02 -52.98 -58.81 0 0 -6935.73 -138.02 -91.39c-14.04,-11.39 -26.22,-22.26 -36.29,-33.11l0 7060.24 0 52.98 0 52.99 0 64.11 146.49 0 27.81 -54.57zm-135.63 266.47l-38.68 76.03 0 -76.03 38.68 0zm-503.08 988.06l-129.54 0 0 82.12 0 69.94 279.49 0 10.32 0 227.83 0 0 -85.04 0 -67.02 -150.48 0 -237.63 0zm59.34 -4899.25l-803.22 0 -3605.75 0 -109.15 0 0 105.96 109.15 0 3605.75 0 803.22 0 0 -105.96zm-803.22 -2150.89l803.22 0 0 105.96 -803.22 0 -3605.75 0 -109.15 0 0 -105.96 109.15 0 3605.75 0zm803.22 -1535.48l-803.22 0 -3605.75 0 -109.15 0 0 105.97 109.15 0 3605.75 0 803.22 0 0 -105.97zm-803.22 -2302.87l803.22 0 0 105.96 -803.22 0 -3714.89 0 0 -105.96 3714.89 0zm720.57 -1286.4l-303.86 0 0 1231.06 303.86 0 0 -1231.06zm-532.75 4060.13l303.86 0 0 926.41 -303.86 0 0 -926.41zm177.49 -4060.13l-303.85 0 0 1231.06 303.85 0 0 -1231.06zm-236.84 4060.13l0 926.41 -128.48 0 -175.37 0 0 -926.41 175.37 0 128.48 0zm-118.15 -2829.07l0 -1231.06 -10.33 0 -293.53 0 0 1231.06 293.53 0 10.33 0zm-658.84 -1231.06l303.59 0 0 1231.06 -303.59 0 0 -1231.06zm278.16 9615.07l0 -185.97 -45.83 0 -1567.5 0 -188.09 0 0 185.97 -158.42 0 0 185.7 1801.41 0 0 -185.7 158.42 0zm-1724.33 -4948.66l1418.09 0 0 303.59 -1418.09 0 0 -303.59zm1086.68 2206.26l-1590.81 0 0 303.86 1590.81 0 0 -303.86zm-705.99 -6872.67l303.85 0 0 1231.06 -303.85 0 0 -1231.06zm-51.13 0l-303.85 0 0 1231.06 303.85 0 0 -1231.06zm-1470.01 5585.45l303.59 0 0 1591.08 -303.59 0 0 -1591.08zm-28.88 0l-303.86 0 0 1591.08 303.86 0 0 -1591.08zm-450.88 4403.67l0 -105.96 109.15 0 3605.75 0 803.22 0 0 105.96 -803.22 0 -3605.75 0 -109.15 0zm-3607.61 -8482.29l282.4 0 0 -275.51 -498.83 0 0 7697.88 216.43 0 0 -7422.37zm-1301.52 10314.2l0 -193.91 0 -672.09 138.01 0 0 659.37 0 193.12 0 316.84 0 202.66 -138.01 0 0 -201.87 0 -304.12zm-1421.8 -24.63l0 227.29 0 138.81 0 164.52 138.01 0 0 -171.13 0 -160.28 0 -219.61 0 -820.97 -138.01 0 0 841.37zm-963.76 -3089.75c-5.83,0 -10.86,-3.71 -12.72,-9.27l-48.48 -153.65 42.12 -11.65 -3.7 -13.25 79.74 -22.52 72.32 257.23 19.86 0 0 -272.6 10.33 0 0 -44.24 32.32 0 0 44.24 10.59 0 0 272.6 32.85 0 24.9 -220.94 10.33 1.32 5.04 -44.25 32.05 3.71 -5.03 43.97 10.59 1.32 -24.37 214.85 32.05 0 20.41 -180.94 10.59 1.32 5.04 -44.24 31.79 3.7 -5.04 43.97 10.59 1.32 -19.86 174.85 64.11 0 0 78.68 -43.44 0 -29.41 0 -53.52 0 -281.07 0 -43.44 0 0 -78.68 55.63 0 -55.1 -196.04 -15.9 4.5 40.27 127.43c2.38,6.89 -1.59,14.31 -8.48,16.42l-3.97 0.8z"/>
  <path class="fil3" d="M1260.97 2616.06l-343.33 -1062.84 0 1066.01 -239.22 0 0 -1136.75 239.22 0 0 50.07 221.47 -71.79 349.42 1081.91 -227.55 73.38zm2762.26 -1133.58l239.22 0 0 1136.75 -239.22 0 0 -1136.75zm4746.47 2178.39l-303.86 0 0 1231.06 303.86 0 0 -1231.06zm355.27 0l-303.88 0 0 1231.06 303.88 0 0 -1231.06zm1775.43 0l-303.86 0 0 1231.06 303.86 0 0 -1231.06zm51.12 0l303.86 0 0 1231.06 -303.86 0 0 -1231.06zm355.25 0l303.86 0 0 1231.06 -303.86 0 0 -1231.06zm1389.74 66.44l472.35 687.98 20.4 29.41 73.64 107.29c-21.19,17.22 -46.62,28.88 -73.64,36.82 -7.95,2.39 -16.16,4.51 -24.64,6.1 -62.25,12.72 -125.3,4.24 -181.2,-20.67 -55.1,-23.84 -103.58,-63.84 -138.81,-114.97l-9.54 -13.78 -380.16 -552.08 241.6 -166.1zm7835.11 2271.99l0 969.05 -239.22 0 0 -871.04 -298.82 871.04 -226.5 -77.62 314.72 -916.61 210.6 72.32 0 -47.15 239.22 0zm-379.09 2869.53l239.22 0 0 969.32 -239.22 0 0 -969.32zm-67.02 0l-238.95 0 0 969.32 238.95 0 0 -969.32zm-1407.22 -2139.69l969.32 0 0 239.22 -969.32 0 0 -239.22zm425.71 2139.69l-239.22 0 0 969.32 239.22 0 0 -969.32zm-545.19 0l239.22 0 0 969.32 -239.22 0 0 -969.32zm-202.39 730.07l-969.32 0 0 239.22 969.32 0 0 -239.22zm-5731.96 328.44l-303.86 0 0 1231.06 303.86 0 0 -1231.06zm-455.66 -2624.19l303.86 0 0 1231.06 -303.86 0 0 -1231.06zm-51.38 1231.06l0 -1231.06 -136.43 0 -167.17 0 0 1231.06 167.17 0 136.43 0zm-151.8 2624.19l0 -1231.06 15.37 0 288.49 0 0 1231.06 -288.49 0 -15.37 0zm-203.19 -3855.25l-303.85 0 0 1231.06 303.85 0 0 -1231.06zm-354.98 0l-303.85 0 0 1231.06 303.85 0 0 -1231.06zm-2157.2 615.72l1590.81 0 0 303.85 -1590.81 0 0 -303.85zm1294.9 -4258l-303.59 0 0 1231.06 303.59 0 0 -1231.06zm-658.84 0l303.86 0 0 1231.06 -303.86 0 0 -1231.06zm-1258.07 5793.15l185.7 0 0 1704.46 -185.7 0 0 -1704.46zm-217.23 0l185.7 0 0 1704.46 -185.7 0 0 -1704.46zm-4223.9 -5056.5l-239.22 0 0 1136.75 239.22 0 0 -1136.75zm-371.7 0l-239.19 0 0 1136.75 239.19 0 0 -1136.75zm-1117.81 -2017.54l1136.75 0 0 239.22 -1136.75 0 0 -239.22zm768.15 2912.47l-1137.01 0 0 239.22 1137.01 0 0 -239.22zm-2533.54 2010.7l0 116.3 212.99 -104.9 502.55 1019.65 -214.58 105.7 -500.96 -1016.48 0 1016.48 -239.22 0 0 -1136.75 239.22 0zm1264.04 -2905.63l-239.22 0 0 1136.75 239.22 0 0 -1136.75z"/>
  <path class="fil8" d="M14612.44 6537.56c0.11,0.34 0.16,0.63 0.22,0.9 0.02,0.29 0.02,0.52 0.02,0.82l0 0.39 0 0.8c0,0 -0.08,0.47 -0.13,1.53 -0.05,0.85 -0.11,2.09 -0.11,3.76 -0.26,3.7 -0.26,9 -0.26,15.63 0,27.28 2.62,78.15 19.04,127.95 16.16,49.8 45.86,98.02 98.84,123.71 4.77,2.38 6.62,7.95 4.51,12.72 -2.41,4.51 -7.95,6.63 -12.75,4.25 -52.46,-25.43 -83.71,-70.47 -101.99,-116.84 -2.62,-5.83 -4.78,-11.91 -6.63,-18.01 -17.22,-52.72 -19.86,-105.17 -20.14,-133.78 0,-12.35 0.64,-20.19 0.77,-22.1l0.05 -0.42c0,-0.27 0,-0.8 0.27,-1.06 -12.4,0.34 -24.32,0.45 -35.65,0.56 -36.51,0.37 -40.22,0.13 -103.69,1.29l-17.78 0c-18.25,37.09 -29.14,77.36 -32.05,118.95l-29.65 398.17 -0.29 1.85c-94.31,599.77 -202.65,1256.23 -202.65,1256.23l14.59 109.41 89.78 549.7c4.75,49.64 9.59,99.28 14.44,148.94 14.36,147.34 28.72,294.64 40.4,442.08 8.74,98.55 16.95,197.1 23.58,295.65 7.42,98.54 14.57,197.36 20.16,295.91 2.36,38.15 3.44,81.33 3.71,127.16l100.67 -197.63 -20.7 0 0 -152.33 280.28 0c-0.53,-29.67 -0.79,-59.33 -1.03,-89.01 -1.35,-98.81 -1.35,-197.62 -1.08,-296.7 -0.59,-148.2 1.5,-296.54 3.57,-444.9l0 -0.11c0.71,-49.45 1.4,-98.94 1.98,-148.41l12.46 -550.75 24.13 -113.12 87.95 -415.12c0,0 216.41,-402.67 415.89,-789.45 103.32,-19.6 180.41,-70.21 237.37,-145.7 86.28,-113.28 143.72,-477.73 143.72,-477.73 0,0 -79.27,17.38 -176.44,33.67 -259.95,24.22 -713.96,39.79 -875.38,41.12zm19.31 4141.46l-156.04 7.68 -65.69 3.44 -27.55 54.05c12.46,13.51 48.74,21.46 93.25,24.63 50.86,3.97 112.86,1.59 163.72,-6.36 56.42,-8.47 99.07,-23.57 98.01,-43.7 -0.79,-14.31 -1.32,-29.41 -1.59,-45.04l-104.11 5.3zm103.58 -31.76l-311.54 15.63 255.91 -502.55 63.32 0c0.63,66.25 -1.56,145.36 -3.79,226.42 -2.48,89.41 -5.01,181.15 -3.89,260.5z"/>
  <path class="fil9" d="M12906.36 13175.76l-4786.47 0 -174.32 0 0 -95.08c-349.69,16.42 -554.19,36.3 -554.19,57.48 0,24.35 272.59,47.16 727.19,64.91 587.84,22.78 1479.54,37.33 2478.01,37.33 898.59,0 1710.82,-11.92 2292.84,-30.71l16.95 -33.93zm457.27 -89.3c278.43,15.36 438.17,32.85 438.17,51.65 0,23.58 -250.08,45.31 -670.24,62.52l12.72 -24.9 45.04 0 174.32 0 0 -89.27zm1409.84 700.78c-1647.23,0 -2982.4,-45.83 -2982.4,-102.52 0,-62.53 5964.81,-57.38 5964.81,0 0,56.69 -1335.17,102.52 -2982.41,102.52zm-8765.99 -102.52l0 -136.43c445.06,33.11 713.68,76.03 713.68,123.18 0,101.44 -5007.97,566.81 -5518.92,13.25 -0.82,-0.98 50.04,-0.51 98.97,-0.06 45.28,0.4 88.91,0.8 88.27,0.06l62.26 0 0 -135.11c685.55,-53.25 1257.31,-68.35 2287.01,-68.35 788.39,0 1505.24,19.6 2038.52,51.65l0 151.8 230.21 0z"/>
  <path class="fil7" d="M6824.67 1666.23c-7.05,-1.93 -14.34,2.22 -16.27,9.27 -1.93,7.07 2.23,14.36 9.3,16.26 51.5,14.1 102.02,28.8 152.01,44.49 6.97,2.17 14.41,-1.7 16.61,-8.69 2.17,-6.97 -1.7,-14.41 -8.69,-16.58 -50.33,-15.79 -101.18,-30.6 -152.96,-44.75zm10305.75 302.61c7.32,-0.21 13.07,-6.33 12.85,-13.64 -0.23,-7.32 -6.33,-13.07 -13.64,-12.83 -102.08,3.07 -204.15,11.62 -305.34,26.28 -7.23,1.05 -12.27,7.79 -11.2,15.02 1.03,7.23 7.76,12.27 14.99,11.2 100.15,-14.49 201.23,-23 302.35,-26.04zm305.47 -19.73c-7.28,-0.53 -13.64,4.96 -14.17,12.24 -0.53,7.32 4.96,13.65 12.27,14.18 101.65,7.39 202.47,19.76 301.55,36.56 7.21,1.22 14.05,-3.62 15.26,-10.86 1.22,-7.2 -3.62,-14.04 -10.83,-15.26 -99.87,-16.92 -201.52,-29.41 -304.07,-36.85zm-904.6 107.87c7.05,-1.96 11.15,-9.27 9.19,-16.32 -1.96,-7.05 -9.24,-11.15 -16.29,-9.19 -98.41,27.33 -195.05,61.36 -289.07,102.6 -6.71,2.94 -9.75,10.75 -6.81,17.43 2.93,6.71 10.75,9.75 17.43,6.84 92.83,-40.72 188.3,-74.31 285.55,-101.36zm1507.93 -6.04c-7.08,-1.86 -14.34,2.32 -16.22,9.4 -1.88,7.07 2.33,14.33 9.41,16.21 49.37,13.14 98.04,27.28 145.86,42.41 6.96,2.2 14.41,-1.67 16.6,-8.63 2.2,-6.97 -1.66,-14.42 -8.63,-16.64 -48.19,-15.23 -97.25,-29.51 -147.02,-42.75zm-2060.65 249.83c6.18,-3.94 7.98,-12.13 4.06,-18.3 -3.94,-6.15 -12.14,-7.97 -18.3,-4.03 -42.89,27.36 -84.94,56.61 -126.05,87.77 -5.83,4.4 -6.99,12.72 -2.57,18.54 4.43,5.83 12.75,6.99 18.57,2.56 40.53,-30.73 82.02,-59.54 124.3,-86.55zm2513.59 -92.72c-6.7,-2.91 -14.52,0.16 -17.43,6.86 -2.94,6.71 0.13,14.52 6.84,17.43 49.3,21.46 97.06,43.92 143.18,67.23 0.4,0.19 0.82,0.37 1.22,0.53 1363.19,689.92 1561.41,2278.08 1614.92,2708.25 21.86,175.59 67.92,642.42 -0.9,1187.14 -0.02,0.13 -0.05,0.29 -0.05,0.45 -6.52,51.46 -14.04,103.6 -22.73,156.3 -1.19,7.21 3.68,14.02 10.91,15.21 7.21,1.19 14.04,-3.68 15.23,-10.91 8.74,-53.15 16.35,-105.76 22.92,-157.68 0,-0.14 0.02,-0.3 0.02,-0.43 69.18,-547.62 22.87,-1016.71 0.88,-1193.36l-0.08 -0.63c-53.46,-429.85 -252.84,-2032.32 -1630.39,-2728.59l-0.32 -0.16c-0.32,-0.13 -0.61,-0.27 -0.93,-0.37 -46.17,-23.34 -94.02,-45.78 -143.29,-67.26zm-2761.63 263.78c4.91,5.43 4.49,13.8 -0.95,18.72 -38.6,34.86 -76.17,71.71 -112.59,110.61 -5.01,5.35 -13.4,5.61 -18.72,0.63 -5.36,-5.01 -5.62,-13.41 -0.61,-18.73 36.93,-39.44 75.02,-76.8 114.15,-112.16 5.43,-4.93 13.83,-4.51 18.72,0.93zm149.76 3580.53c-5.24,-5.09 -13.64,-4.96 -18.72,0.32 -5.09,5.25 -4.93,13.64 0.32,18.72 38.41,37.12 77.91,72.83 118.44,107.16 5.59,4.74 13.94,4.06 18.65,-1.54 4.74,-5.59 4.06,-13.93 -1.54,-18.67 -40.11,-33.96 -79.15,-69.3 -117.15,-105.99zm362.48 288.62c-6.15,-3.99 -14.33,-2.27 -18.33,3.84 -3.99,6.15 -2.27,14.36 3.87,18.33 40.5,26.38 81.75,51.6 123.68,75.6 6.36,3.63 14.44,1.43 18.07,-4.93 3.65,-6.33 1.45,-14.44 -4.91,-18.06 -41.51,-23.77 -82.33,-48.69 -122.39,-74.79zm378.96 202.93c-6.7,-2.89 -14.49,0.21 -17.4,6.91 -2.89,6.73 0.21,14.52 6.94,17.43 88.48,38.15 179.26,71.5 271.93,99.95 7,2.14 14.42,-1.77 16.56,-8.77 2.14,-6.99 -1.77,-14.41 -8.77,-16.56 -91.76,-28.19 -181.65,-61.19 -269.26,-98.96zm1835.14 151.5c7.07,-1.82 11.36,-9.03 9.53,-16.13 -1.82,-7.08 -9.03,-11.34 -16.13,-9.54 -46.55,11.95 -93.2,22.76 -139.87,32.43 -7.18,1.48 -11.78,8.47 -10.3,15.65 1.48,7.16 8.5,11.76 15.65,10.28 47.11,-9.75 94.16,-20.64 141.13,-32.69zm-1287.51 16.98c-7.18,-1.38 -14.15,3.31 -15.55,10.49 -1.38,7.18 3.28,14.12 10.48,15.52 94.34,18.36 190.08,31.93 286.83,40.61 7.28,0.64 13.72,-4.74 14.36,-12.03 0.66,-7.28 -4.72,-13.72 -12.01,-14.36 -95.84,-8.61 -190.69,-22.04 -284.12,-40.24zm860.31 60.78c7.26,-0.8 12.54,-7.32 11.73,-14.6 -0.79,-7.26 -7.34,-12.54 -14.6,-11.73 -95.84,10.4 -191.48,16.08 -286.56,17.06 -7.31,0.08 -13.17,6.09 -13.09,13.4 0.08,7.32 6.07,13.17 13.38,13.09 95.93,-1 192.44,-6.7 289.13,-17.21zm735.22 -188.28c2.51,6.86 -1.01,14.46 -7.87,17 -50.2,18.46 -100.64,35.55 -151.21,51.29 -7,2.17 -14.42,-1.75 -16.59,-8.72 -2.17,-6.99 1.75,-14.41 8.72,-16.58 50.14,-15.61 100.17,-32.53 149.94,-50.86 6.87,-2.51 14.47,1 17.01,7.87zm-11504.89 -4757.92c2.8,-6.76 10.57,-9.93 17.32,-7.13 58.36,24.37 117.15,50.86 177.02,79.95 6.57,3.18 9.32,11.1 6.12,17.7 -3.2,6.57 -11.12,9.32 -17.7,6.12 -59.44,-28.86 -117.75,-55.13 -175.66,-79.32 -6.73,-2.8 -9.93,-10.57 -7.1,-17.32zm516.48 263.8c3.78,-6.25 11.94,-8.24 18.2,-4.46 53.06,32.19 107.63,66.6 164.04,103.48 6.15,4.01 7.84,12.22 3.83,18.33 -3.99,6.12 -12.21,7.84 -18.33,3.84 -56.16,-36.73 -110.47,-70.98 -163.28,-103 -6.26,-3.79 -8.24,-11.95 -4.46,-18.2zm12427.51 4407.01c7.19,1.48 11.79,8.48 10.31,15.66 -10.12,49.09 -21.31,98.46 -33.59,148.01 -1.77,7.1 -8.95,11.41 -16.06,9.64 -7.1,-1.74 -11.44,-8.92 -9.66,-16.03 12.24,-49.19 23.31,-98.22 33.37,-146.97 1.49,-7.18 8.48,-11.78 15.63,-10.3zm-117.49 438.01c6.92,2.39 10.6,9.94 8.21,16.85 -32.71,94.68 -70.23,189 -113.17,281.89 -3.06,6.66 -10.93,9.54 -17.58,6.47 -6.63,-3.07 -9.54,-10.94 -6.47,-17.59 42.54,-92.03 79.74,-185.49 112.16,-279.43 2.39,-6.92 9.94,-10.57 16.85,-8.19zm-6729.46 15.82c4.96,-5.38 13.33,-5.73 18.7,-0.77 35.65,32.88 70.95,65.09 105.94,96.67 5.43,4.9 5.85,13.27 0.95,18.7 -4.91,5.43 -13.28,5.86 -18.7,0.95 -35.04,-31.66 -70.42,-63.92 -106.12,-96.82 -5.38,-4.96 -5.73,-13.36 -0.77,-18.73zm321.15 286.74c4.75,-5.56 13.12,-6.22 18.68,-1.45 74.2,63.45 147.63,124.14 220.99,182.32 5.75,4.56 6.71,12.87 2.15,18.59 -4.54,5.75 -12.88,6.7 -18.6,2.17 -73.64,-58.41 -147.34,-119.32 -221.76,-182.95 -5.57,-4.77 -6.23,-13.12 -1.46,-18.68zm6156.36 246.35c6.25,3.81 8.24,11.94 4.45,18.2 -52.01,85.67 -109.57,169.2 -173.26,249.78 -4.53,5.73 -12.87,6.71 -18.59,2.17 -5.75,-4.53 -6.73,-12.88 -2.17,-18.62 62.97,-79.66 119.93,-162.28 171.37,-247.08 3.81,-6.26 11.94,-8.24 18.2,-4.46zm-5706.81 110.34c4.27,-5.94 12.56,-7.31 18.48,-3.02 38.9,27.97 77.94,55.32 117.31,82.04 6.04,4.12 7.61,12.35 3.49,18.41 -4.11,6.05 -12.35,7.61 -18.4,3.5 -39.53,-26.89 -78.79,-54.37 -117.87,-82.44 -5.93,-4.3 -7.28,-12.56 -3.01,-18.49zm5334.63 364.71c5.12,5.25 4.99,13.62 -0.26,18.73 -36.03,34.99 -73.54,69.17 -112.59,102.39 -44.14,37.54 -89.19,72.96 -135.08,106.41 -5.94,4.3 -14.2,2.99 -18.51,-2.91 -4.33,-5.91 -3.02,-14.2 2.91,-18.49 45.35,-33.06 89.91,-68.11 133.52,-105.19 38.62,-32.82 75.68,-66.6 111.29,-101.2 5.25,-5.12 13.64,-4.99 18.72,0.26zm-4050.11 309.42c2.49,-6.86 10.09,-10.43 16.98,-7.94 37.41,13.56 91.71,33.19 160.54,56.64 6.91,2.35 10.62,9.87 8.26,16.82 -2.35,6.91 -9.88,10.62 -16.79,8.26 -69.07,-23.52 -123.53,-43.23 -160.97,-56.77l-0.07 -0.03c-6.87,-2.48 -10.44,-10.09 -7.95,-16.98zm3515.82 81.44c3.38,6.46 0.9,14.49 -5.6,17.88 -102.36,53.59 -207.48,99.26 -314.53,137.83 -6.89,2.46 -14.46,-1.11 -16.95,-7.97 -2.46,-6.89 1.08,-14.5 7.97,-16.96 105.97,-38.17 210,-83.36 311.23,-136.38 6.49,-3.38 14.49,-0.89 17.88,5.6zm-3028.85 78.63c2.01,-7.03 9.34,-11.07 16.39,-9.06 99.74,28.69 210.5,58.17 330,86.2 7.11,1.7 11.52,8.82 9.86,15.92 -1.67,7.13 -8.8,11.55 -15.92,9.88 -119.98,-28.16 -231.17,-57.75 -331.28,-86.55 -7.02,-2.01 -11.07,-9.35 -9.05,-16.39zm664.8 156.96c1.29,-7.18 8.18,-11.97 15.39,-10.7 108.43,19.42 221.34,36.57 337.45,50.28 7.26,0.85 12.45,7.45 11.59,14.7 -0.87,7.26 -7.44,12.46 -14.7,11.6 -116.7,-13.77 -230.11,-31.02 -339.01,-50.49 -7.2,-1.29 -11.99,-8.18 -10.72,-15.39zm1724.36 0.29c1.61,7.16 -2.83,14.26 -9.99,15.87 -111.95,25.51 -224.96,44.56 -338.13,58.04 -7.26,0.87 -13.86,-4.32 -14.73,-11.57 -0.85,-7.26 4.32,-13.86 11.6,-14.73 112.29,-13.38 224.4,-32.27 335.38,-57.57 7.13,-1.61 14.23,2.84 15.87,9.96zm-1045.73 80.62c0.37,-7.29 6.6,-12.94 13.88,-12.57 112.22,5.62 226.19,7.29 340.9,4.09 7.31,-0.19 13.41,5.57 13.62,12.88 0.18,7.31 -5.57,13.41 -12.88,13.62 -115.44,3.23 -230.11,1.53 -342.96,-4.11 -7.28,-0.37 -12.93,-6.6 -12.56,-13.91z"/>
  <path class="fil10 str0" d="M1064.53 4906.93c153.91,-840.37 554.41,-1637.81 1170.84,-2254 1660.11,-1659.42 4012.4,-1130.63 4585.85,-973.99"/>
  <path class="fil7" d="M6248 3736.85c105.46,-10.19 212.95,-11.54 320.23,-5.06 7.29,0.45 12.85,6.73 12.43,14.04 -0.45,7.29 -6.73,12.86 -14.04,12.43 -105.99,-6.44 -212.07,-5.09 -316.05,4.99 -7.29,0.68 -13.78,-4.64 -14.47,-11.92 -0.71,-7.29 4.62,-13.75 11.89,-14.47zm622.03 46.92c1.45,-7.18 8.42,-11.81 15.6,-10.38 106.09,21.3 209.84,49.62 308.95,83.84 6.91,2.38 10.56,9.91 8.18,16.82 -2.38,6.94 -9.93,10.6 -16.85,8.21 -97.96,-33.85 -200.56,-61.83 -305.49,-82.91 -7.18,-1.43 -11.81,-8.4 -10.38,-15.58zm-920.42 22.28c2.09,7 -1.91,14.39 -8.9,16.45 -101.97,30.31 -199.14,71.24 -289.13,123.95 -6.31,3.71 -14.41,1.59 -18.12,-4.74 -3.67,-6.31 -1.56,-14.42 4.75,-18.12 91.97,-53.89 191.16,-95.64 294.96,-126.47 6.99,-2.09 14.38,1.9 16.45,8.92zm1521.35 183.01c3.38,-6.49 11.38,-8.98 17.88,-5.6 48.47,25.41 94.78,52.33 138.54,80.56 45.31,29.25 88.77,60.54 130.5,93.71 5.72,4.56 6.67,12.88 2.11,18.59 -4.56,5.75 -12.9,6.68 -18.62,2.14 -41.03,-32.63 -83.81,-63.42 -128.35,-92.19 -43.04,-27.79 -88.69,-54.31 -136.48,-79.34 -6.49,-3.39 -8.98,-11.42 -5.59,-17.88zm-2065.91 133.33c5.33,5.04 5.57,13.44 0.53,18.73 -35.47,37.54 -68.7,78.1 -99.37,121.83 -25.64,36.54 -49.08,74.57 -70.39,113.94 -3.46,6.44 -11.52,8.82 -17.93,5.35 -6.44,-3.46 -8.85,-11.52 -5.35,-17.96 21.75,-40.24 45.75,-79.15 71.97,-116.54 31.45,-44.8 65.46,-86.36 101.81,-124.83 5.04,-5.3 13.44,-5.54 18.73,-0.53zm2564.91 256.47c5.54,-4.78 13.91,-4.17 18.67,1.37 69.41,80.61 131.82,167.64 187.53,259.93 3.75,6.25 1.74,14.41 -4.51,18.17 -6.28,3.78 -14.41,1.77 -18.2,-4.51 -54.97,-91.1 -116.54,-176.91 -184.91,-256.3 -4.77,-5.54 -4.13,-13.91 1.41,-18.67zm-2843.95 229.63c7.05,2.01 11.1,9.35 9.09,16.37 -24.35,84.59 -40.64,172.86 -48.8,263.67 -0.66,7.28 -7.1,12.66 -14.38,11.99 -7.29,-0.66 -12.67,-7.1 -12.01,-14.38 8.32,-92.41 24.87,-182.35 49.72,-268.6 2.01,-7.05 9.35,-11.1 16.37,-9.06zm3177.39 310.27c6.75,-2.83 14.52,0.31 17.35,7.07 40.9,97.28 75.81,198.4 104.93,302.35 1.98,7.02 -2.12,14.33 -9.17,16.32 -7.04,1.96 -14.36,-2.15 -16.31,-9.19 -28.86,-102.92 -63.43,-203 -103.88,-299.22 -2.83,-6.73 0.35,-14.49 7.08,-17.32zm-3232.38 226.07c7.28,-0.58 13.67,4.85 14.25,12.17 6.94,87.66 20.88,176.48 41.8,265.47 1.7,7.12 -2.72,14.25 -9.85,15.94 -7.1,1.67 -14.25,-2.75 -15.92,-9.85 -21.25,-90.28 -35.39,-180.44 -42.44,-269.5 -0.58,-7.29 4.88,-13.67 12.17,-14.23zm3408.52 384.87c7.2,-1.19 14.04,3.68 15.23,10.91 17.3,104.45 29.41,210.63 36.51,317.66 0.5,7.29 -5.04,13.59 -12.35,14.1 -7.28,0.47 -13.59,-5.07 -14.09,-12.35 -7.03,-106.2 -19.05,-211.51 -36.22,-315.09 -1.19,-7.2 3.7,-14.04 10.91,-15.23zm-3289.52 142c6.81,-2.65 14.49,0.71 17.14,7.55 16.16,41.43 33.85,82.7 53.11,123.73 3.1,6.63 0.27,14.5 -6.36,17.62 -6.62,3.09 -14.51,0.24 -17.61,-6.39 -19.49,-41.54 -37.44,-83.36 -53.83,-125.36 -2.65,-6.81 0.71,-14.49 7.55,-17.16zm3334.82 492.69c7.31,0.18 13.09,6.25 12.93,13.56 -2.67,106.63 -10.06,213.21 -22.07,318.94 -0.82,7.26 -7.39,12.5 -14.65,11.67 -7.26,-0.84 -12.51,-7.39 -11.68,-14.67 11.92,-104.94 19.26,-210.77 21.91,-316.61 0.19,-7.31 6.26,-13.09 13.57,-12.9zm-7462.35 240.72c6.97,-2.19 14.41,1.64 16.64,8.61 13.46,42.44 28.69,88.3 45.8,137.12 2.41,6.92 -1.21,14.47 -8.13,16.9 -6.92,2.41 -14.47,-1.22 -16.87,-8.13 -17.2,-49.09 -32.51,-95.19 -46.05,-137.86 -2.22,-6.97 1.64,-14.41 8.61,-16.64zm7392.86 391.95c7.18,1.45 11.79,8.45 10.33,15.63 -21.57,105.4 -47.74,209.01 -78.39,309.9 -2.12,6.99 -9.53,10.93 -16.53,8.82 -7,-2.12 -10.94,-9.54 -8.82,-16.53 30.41,-100.07 56.4,-202.87 77.78,-307.51 1.46,-7.16 8.48,-11.79 15.63,-10.3zm-7244.09 17.61c6.76,-2.8 14.52,0.4 17.3,7.15 34.88,84.01 74.25,172.65 118.57,264.55 3.18,6.59 0.43,14.49 -6.17,17.66 -6.6,3.18 -14.49,0.43 -17.67,-6.17 -44.56,-92.35 -84.14,-181.47 -119.18,-265.89 -2.81,-6.76 0.39,-14.5 7.15,-17.3zm251.35 524.09c6.38,-3.55 14.44,-1.25 17.98,5.14 45.57,81.93 94.95,165.28 148.44,249.12 3.91,6.18 2.11,14.36 -4.06,18.31 -6.17,3.91 -14.36,2.11 -18.3,-4.06 -53.78,-84.33 -103.43,-168.12 -149.23,-250.5 -3.55,-6.42 -1.25,-14.47 5.17,-18.01zm6809.25 67.54c6.73,2.84 9.91,10.6 7.08,17.35 -20.86,49.57 -42.86,98.15 -66.07,145.57 -24.37,49.83 -50.2,98.79 -77.47,146.84 -3.59,6.36 -11.67,8.58 -18.03,4.99 -6.39,-3.6 -8.61,-11.71 -5.01,-18.07 26.99,-47.58 52.59,-96.03 76.72,-145.38 22.97,-46.97 44.8,-95.08 65.43,-144.22 2.83,-6.73 10.59,-9.91 17.35,-7.08zm-6497.85 423.13c5.91,-4.33 14.21,-3.02 18.52,2.88 55.95,76.46 115.5,152.64 178.84,227.9 4.72,5.62 3.99,13.97 -1.59,18.67 -5.59,4.72 -13.96,4.01 -18.67,-1.61 -63.74,-75.73 -123.66,-152.4 -179.95,-229.34 -4.33,-5.91 -3.05,-14.17 2.85,-18.51zm6177.94 146.44c5.88,4.32 7.15,12.61 2.8,18.51 -65.51,89.01 -136.19,174.21 -211.5,255.54 -4.98,5.38 -13.35,5.7 -18.7,0.71 -5.38,-4.95 -5.7,-13.35 -0.74,-18.7 74.68,-80.61 144.7,-165.07 209.63,-253.26 4.35,-5.88 12.64,-7.15 18.51,-2.8zm-5805 298.95c5.25,-5.09 13.62,-4.98 18.73,0.27 66.31,68.24 136.14,135.08 209.6,200.03 5.49,4.85 6.02,13.22 1.16,18.7 -4.85,5.49 -13.22,5.99 -18.7,1.14 -73.98,-65.41 -144.29,-132.73 -211.05,-201.39 -5.12,-5.25 -4.98,-13.64 0.26,-18.75zm5359.54 187.37c4.83,5.51 4.27,13.86 -1.24,18.67 -82.89,72.43 -169.81,140.97 -260.26,205.47 -5.96,4.27 -14.23,2.86 -18.48,-3.09 -4.25,-5.94 -2.86,-14.23 3.09,-18.46 89.78,-64.03 175.98,-132.01 258.21,-203.85 5.51,-4.83 13.86,-4.24 18.67,1.27zm-4925.48 198.71c4.41,-5.85 12.72,-7.02 18.55,-2.62 38.33,28.86 77.49,57.15 117.54,84.86 6.02,4.16 7.53,12.4 3.36,18.41 -4.16,6.02 -12.4,7.52 -18.41,3.36 -40.34,-27.89 -79.82,-56.4 -118.42,-85.46 -5.85,-4.41 -7.02,-12.7 -2.62,-18.55zm4390.17 187.03c3.68,6.33 1.53,14.44 -4.77,18.12 -95.06,55.34 -193.04,106.73 -293.5,154.07 -6.63,3.09 -14.52,0.26 -17.65,-6.36 -3.12,-6.6 -0.26,-14.49 6.34,-17.62 99.81,-47.02 197.12,-98.04 291.45,-152.98 6.34,-3.68 14.44,-1.54 18.12,4.77zm-595.95 283.77c2.54,6.86 -0.92,14.49 -7.79,17.06 -103.1,38.52 -208.19,73.04 -314.82,103.48 -7.04,2.01 -14.36,-2.07 -16.37,-9.11 -2.01,-7.03 2.07,-14.36 9.09,-16.38 105.99,-30.22 210.39,-64.53 312.83,-102.81 6.87,-2.57 14.5,0.93 17.06,7.76zm-2780.36 66.68c2.3,-6.94 9.83,-10.68 16.74,-8.37 52.06,17.43 104.49,33.67 157.23,48.77 7.05,2.01 11.13,9.35 9.12,16.37 -2.02,7.05 -9.35,11.09 -16.4,9.08 -53.12,-15.2 -105.94,-31.55 -158.34,-49.08 -6.95,-2.33 -10.68,-9.83 -8.35,-16.77zm2146.12 116.67c1.46,7.18 -3.17,14.18 -10.35,15.63 -108.04,21.94 -217.2,39.76 -327.04,53.41 -7.26,0.9 -13.88,-4.24 -14.78,-11.49 -0.9,-7.26 4.27,-13.89 11.52,-14.79 109.17,-13.56 217.65,-31.28 325.02,-53.09 7.18,-1.45 14.18,3.18 15.63,10.33zm-1667.57 10.99c1.4,-7.18 8.37,-11.86 15.55,-10.46 107.65,21.06 216.27,37.59 325.45,49.69 7.28,0.83 12.53,7.37 11.7,14.66 -0.79,7.26 -7.36,12.5 -14.62,11.67 -109.89,-12.19 -219.22,-28.85 -327.62,-50.01 -7.18,-1.4 -11.87,-8.37 -10.46,-15.55zm1012.63 72.43c0.35,7.31 -5.3,13.51 -12.61,13.85 -110.31,5.17 -220.92,6.1 -331.38,2.65 -7.31,-0.21 -13.06,-6.33 -12.82,-13.65 0.24,-7.31 6.33,-13.06 13.64,-12.82 109.79,3.39 219.69,2.49 329.32,-2.65 7.31,-0.34 13.51,5.3 13.85,12.62zm313.29 -3321.47c6.07,-4.09 14.31,-2.46 18.38,3.62 29.07,43.26 60.01,85.89 92.83,127.82 4.51,5.78 3.5,14.1 -2.27,18.6 -5.75,4.51 -14.07,3.49 -18.6,-2.25 -33.21,-42.44 -64.53,-85.62 -93.94,-129.41 -4.08,-6.07 -2.46,-14.31 3.6,-18.38zm-4404.84 29.75c-1.59,-7.15 -8.69,-11.62 -15.82,-10.04 -7.15,1.59 -11.62,8.66 -10.04,15.82 5.73,25.67 18.2,79.16 39.16,154.65 1.96,7.05 9.27,11.18 16.32,9.22 7.05,-1.96 11.17,-9.24 9.22,-16.32 -20.83,-74.99 -33.2,-128.03 -38.84,-153.33z"/>
  <path class="fil3" d="M20774.35 4268.97l-3740.36 0 0 -26.49 3740.36 0 0 26.49zm0 1448.12l-3740.36 0 0 -26.48 3740.36 0 0 26.48zm-3740.36 1448.03l3740.36 0 0 -26.49 -3740.36 0 0 26.49zm3740.36 1448.13l-3740.36 0 0 -26.49 3740.36 0 0 26.49zm-3740.36 1448.02l3740.36 0 0 -26.49 -3740.36 0 0 26.49z"/>
  <path class="fil3" d="M4278.31 2736.38l-3740.35 0 0 -26.49 3740.35 0 0 26.49zm0 1448.02l-3740.35 0 0 -26.49 3740.35 0 0 26.49zm-3740.35 1448.13l3740.35 0 0 -26.49 -3740.35 0 0 26.49zm3740.35 1448.02l-3740.35 0 0 -26.49 3740.35 0 0 26.49zm-3740.35 1448.13l1298.71 0 0 -26.49 -1298.71 0 0 26.49zm1626.81 0l1102.31 0 0 -26.49 -1102.31 0 0 26.49zm1437.64 0l675.89 0 0 -26.49 -675.89 0 0 26.49z"/>
  <path class="fil11" d="M13262.94 4552.05l-73.64 -107.29 -20.43 -29.4 -472.32 -687.99 403.2 -134.05 89.54 131.4 174.31 255.9 68.35 100.41 85.31 125.31c-62.52,16.16 -140.14,43.97 -128.75,78.94 14.31,44.25 180.92,90.87 257.21,109.68l9.29 13.52 50.07 73.64 74.17 108.88 -362.93 117.1 -37.88 12.19 0.26 -0.26 0 -0.27c0,-0.26 0,-0.53 0.27,-0.79 1.82,-5.83 8.71,-27.55 16.42,-56.43l0 -0.26c3.68,-13.25 7.42,-28.09 10.86,-43.71 4.77,-21.99 9.24,-45.3 11.65,-67.28 2.89,-24.38 3.44,-47.16 -0.26,-64.38 -1.88,-9.53 -5.07,-17.22 -10.09,-22.78 -19.58,-21.99 -28.09,-23.31 -43.95,-8.48 -2.25,2.04 -4.69,4.56 -7.44,7.37 -1.51,1.53 -3.07,3.12 -4.75,4.82 -1.4,1.48 -2.86,3.05 -4.37,4.7 -14.07,15.2 -33.83,36.51 -63.74,62.6 -6.07,5.3 -12.7,10.85 -19.58,16.42l-0.29 0.27c-0.13,0.13 -0.21,0.21 -0.29,0.23 -0.05,0.03 -0.1,0.03 -0.21,0.03zm2317.48 1934.12l-0.53 -4.78 -9.01 -87.68 -6.62 -64.38c-0.8,-7.42 4.5,-13.78 11.91,-14.57 7.16,-0.79 13.78,4.51 14.57,11.65l7.69 74.97 2.64 25.96 5.57 53.78 1.32 13.51c0.53,7.42 -4.51,13.78 -11.91,14.58 -7.16,0.79 -13.78,-4.51 -14.58,-11.66l-1.05 -11.38zm-137.49 39.71c-7.42,0.79 -13.78,-4.51 -14.58,-11.92l-0.79 -9 -14.84 -145.71c-0.26,-2.91 0.27,-5.83 2.12,-8.21 1.85,-3.44 5.3,-5.83 9.54,-6.36 7.41,-0.79 13.77,4.51 14.57,11.92l0 1.06 14.83 144.9 0.8 8.75c0.79,7.41 -4.51,13.77 -11.65,14.57zm-180.41 -0.8c0.79,7.42 7.15,12.72 14.57,11.92 7.15,-0.79 12.45,-7.42 11.91,-14.57l-0.79 -7.16 -14.31 -140.93c-0.79,-7.16 -7.15,-12.46 -14.57,-11.92 -7.15,0.79 -12.45,7.42 -11.92,14.57l14.31 139.61 0.8 8.47zm-170.34 19.1c-0.53,-1.06 -0.8,-2.38 -0.8,-3.7l-0.79 -15.37 -7.68 -140.94c-0.27,-7.15 5.3,-13.51 12.45,-13.78 7.42,-0.53 13.78,5.04 14.05,12.46l7.68 141.2 0.79 14.84c0,1.85 -0.26,3.97 -1.06,5.56 -1.85,4.78 -6.36,7.95 -11.65,8.48 -5.83,0.27 -11.12,-3.44 -12.98,-8.74zm-161.86 -173.81c-7.42,-0.27 -13.52,5.56 -13.52,12.98l-2.11 147.82 -0.27 10.06 0 1.33c0.53,6.62 6.1,11.91 12.99,11.91 6.62,0.27 12.45,-4.77 13.51,-11.65l0 -1.32 0.27 -11.12 2.11 -146.76c0,-7.16 -5.83,-13.25 -12.98,-13.25zm-185.97 182.31c0,7.16 -6.09,13.25 -13.25,12.99 -7.42,0 -13.25,-5.83 -13.25,-13.25l0 -11.65 0 -4.78 0.53 -146.49c0,-7.42 6.1,-13.25 13.52,-13.25 7.15,0 12.98,5.83 12.98,13.25l-0.53 145.97 0 5.56 0 11.65zm-229.42 0.51c0.53,7.41 6.63,12.98 14.04,12.45 7.16,-0.26 12.72,-6.62 12.46,-13.78l-0.79 -13.25 -7.95 -142.79c-0.27,-7.41 -6.63,-12.98 -13.78,-12.72 -7.42,0.53 -12.98,6.89 -12.72,14.05l7.95 141.99 0.79 14.05z"/>
  <path class="fil7" d="M14504.33 3210.52c0,11.55 -9.35,20.91 -20.91,20.91 -11.52,0 -20.88,-9.35 -20.88,-20.91 0,-11.52 9.35,-20.91 20.88,-20.91 11.55,0 20.91,9.38 20.91,20.91zm-30.42 231.8c0,6.28 -5.09,11.36 -11.36,11.36 -6.28,0 -11.36,-5.09 -11.36,-11.36 0,-6.28 5.09,-11.36 11.36,-11.36 6.28,0 11.36,5.09 11.36,11.36zm417.77 -86.1c0,6.28 -5.09,11.36 -11.36,11.36 -6.28,0 -11.36,-5.09 -11.36,-11.36 0,-6.28 5.09,-11.36 11.36,-11.36 6.28,0 11.36,5.09 11.36,11.36zm-127.79 52.14c0,6.28 -5.09,11.36 -11.36,11.36 -6.28,0 -11.36,-5.09 -11.36,-11.36 0,-6.28 5.09,-11.36 11.36,-11.36 6.28,0 11.36,5.09 11.36,11.36zm-96.3 62.23c6.28,0 11.36,-5.09 11.36,-11.36 0,-6.28 -5.09,-11.36 -11.36,-11.36 -6.28,0 -11.36,5.09 -11.36,11.36 0,6.28 5.09,11.36 11.36,11.36zm92.14 48.96c0,6.28 -5.09,11.36 -11.36,11.36 -6.28,0 -11.36,-5.09 -11.36,-11.36 0,-6.28 5.09,-11.36 11.36,-11.36 6.28,0 11.36,5.09 11.36,11.36zm-135 34.06c6.28,0 11.36,-5.09 11.36,-11.36 0,-6.28 -5.09,-11.36 -11.36,-11.36 -6.28,0 -11.36,5.09 -11.36,11.36 0,6.28 5.09,11.36 11.36,11.36zm-103.16 67.18c6.28,0 11.36,-5.09 11.36,-11.36 0,-6.28 -5.09,-11.36 -11.36,-11.36 -6.25,0 -11.36,5.09 -11.36,11.36 0,6.28 5.12,11.36 11.36,11.36zm312.52 -127.48c6.28,0 11.36,-5.09 11.36,-11.36 0,-6.28 -5.09,-11.36 -11.36,-11.36 -6.28,0 -11.36,5.09 -11.36,11.36 0,6.28 5.09,11.36 11.36,11.36zm0 88.59c0,6.28 -5.09,11.36 -11.36,11.36 -6.28,0 -11.36,-5.09 -11.36,-11.36 0,-6.28 5.09,-11.36 11.36,-11.36 6.28,0 11.36,5.09 11.36,11.36zm-151.32 34.09c6.28,0 11.36,-5.09 11.36,-11.36 0,-6.28 -5.09,-11.36 -11.36,-11.36 -6.28,0 -11.36,5.09 -11.36,11.36 0,6.28 5.09,11.36 11.36,11.36zm-149.84 -173.55c6.28,0 11.39,-5.09 11.39,-11.36 0,-6.28 -5.12,-11.36 -11.39,-11.36 -6.25,0 -11.36,5.09 -11.36,11.36 0,6.28 5.12,11.36 11.36,11.36z"/>
  <path class="fil12" d="M6360.34 5209.02c23.64,-7.44 54.68,-6.38 61.42,-6.05 1175.22,54.6 772.7,-976.07 -378.73,-783.37 1655.16,-401.02 1840.61,1323.69 396.38,1001.43 -206.3,-51.02 -140.44,-169.6 -124.38,-184.44 0,0 16.47,-18.53 45.32,-27.57zm338.71 -323.42c-0.02,0 -0.04,-0.02 -0.06,-0.06 -0.23,-0.12 -0.43,-0.22 -0.65,-0.35 -3.41,-2.01 -5.57,-3.26 -5.92,-3.44 -0.04,-0.04 -0.1,0.04 -0.12,0.04 -935.61,-541.73 -1188.76,706.4 60.04,796.57 -827,-120.32 -899.36,-890.06 -155.46,-656.29l105.5 37.81c32.14,10.43 52.16,12.84 60.14,13.47 31.48,2.45 63.33,-5.52 72.5,-30.77 21.52,-59.09 -105.24,-138.66 -135.96,-156.97zm-971.34 890.11c-9.28,-16.22 -20.83,-32.41 -32.43,-50.94 -34.76,-55.65 -57.95,-109.02 -76.51,-176.18 -27.82,-92.79 -34.77,-204.05 -20.89,-303.75 25.55,-187.73 109,-324.51 234.17,-445.03 115.86,-115.93 315.25,-190.15 484.49,-192.45 164.6,-2.32 322.23,50.98 449.7,146.07 16.22,11.6 34.83,27.79 48.72,37.12 -6.97,-25.51 -71.86,-83.48 -92.73,-102.05 -30.2,-27.79 -74.19,-62.56 -111.34,-83.46 -108.93,-62.57 -224.83,-97.35 -343.03,-101.97l-83.47 0c-118.24,6.94 -234.14,41.72 -336.13,104.29 -215.59,134.43 -345.43,354.73 -354.67,602.77l0 55.59c2.3,44.05 6.94,92.71 18.52,139.12 18.57,92.73 67.25,194.7 120.56,268.88 18.51,23.17 71.88,90.4 95.03,101.99z"/>
 </g>
</svg>
